<svg xmlns="http://www.w3.org/2000/svg" width="160" height="160" viewBox="0 0 160 160">
  <rect width="160" height="160" fill="#ffffff"/>
  <rect x="10" y="10" width="36" height="36" fill="#000000"/>
  <rect x="16" y="16" width="24" height="24" fill="#ffffff"/>
  <rect x="22" y="22" width="12" height="12" fill="#000000"/>

  <rect x="114" y="10" width="36" height="36" fill="#000000"/>
  <rect x="120" y="16" width="24" height="24" fill="#ffffff"/>
  <rect x="126" y="22" width="12" height="12" fill="#000000"/>

  <rect x="10" y="114" width="36" height="36" fill="#000000"/>
  <rect x="16" y="120" width="24" height="24" fill="#ffffff"/>
  <rect x="22" y="126" width="12" height="12" fill="#000000"/>

  <rect x="62" y="14" width="10" height="10" fill="#000000"/>
  <rect x="76" y="14" width="8" height="8" fill="#000000"/>
  <rect x="90" y="14" width="6" height="6" fill="#000000"/>
  <rect x="58" y="30" width="12" height="12" fill="#000000"/>
  <rect x="76" y="28" width="14" height="14" fill="#000000"/>
  <rect x="96" y="28" width="10" height="10" fill="#000000"/>

  <rect x="58" y="54" width="8" height="8" fill="#000000"/>
  <rect x="70" y="52" width="6" height="6" fill="#000000"/>
  <rect x="82" y="52" width="8" height="8" fill="#000000"/>
  <rect x="96" y="54" width="12" height="12" fill="#000000"/>

  <rect x="54" y="72" width="12" height="12" fill="#000000"/>
  <rect x="70" y="70" width="10" height="10" fill="#000000"/>
  <rect x="84" y="70" width="12" height="12" fill="#000000"/>
  <rect x="100" y="72" width="8" height="8" fill="#000000"/>

  <rect x="54" y="90" width="8" height="8" fill="#000000"/>
  <rect x="66" y="88" width="12" height="12" fill="#000000"/>
  <rect x="82" y="90" width="8" height="8" fill="#000000"/>
  <rect x="94" y="88" width="10" height="10" fill="#000000"/>
  <rect x="108" y="90" width="8" height="8" fill="#000000"/>

  <rect x="54" y="106" width="10" height="10" fill="#000000"/>
  <rect x="68" y="106" width="6" height="6" fill="#000000"/>
  <rect x="78" y="104" width="10" height="10" fill="#000000"/>
  <rect x="92" y="106" width="8" height="8" fill="#000000"/>
  <rect x="104" y="104" width="12" height="12" fill="#000000"/>

  <rect x="58" y="122" width="8" height="8" fill="#000000"/>
  <rect x="70" y="120" width="10" height="10" fill="#000000"/>
  <rect x="84" y="120" width="6" height="6" fill="#000000"/>
  <rect x="94" y="122" width="10" height="10" fill="#000000"/>
  <rect x="108" y="120" width="6" height="6" fill="#000000"/>
</svg>
